# xmcd
#
# Track frame offsets:
#	150
#	26431
#	37718
#	49138
#	60611
#	72787
#	83210
#	94611
#	104926
#	116162
#	127239
#
# Disc length: 1910 seconds
#
# Revision: 1
# Processed by: cddbd v1.5.2PL0 Copyright (c) Steve Scherf et al.
# Submitted via: audiograbber 1.83.01
#
DISCID=9607740b
DTITLE=Fats Domino - Fats Is Back
DYEAR=1968
DGENRE=Blues/Rock&Roll
TTITLE0=My Old Friend
TTITLE1=I'm Ready
TTITLE2=So Well When You're Well
TTITLE3=Wait Till It Happens To You
TTITLE4=I Know
TTITLE5=Lady Madonna
TTITLE6=Honest Papas Love Their Mamas Better
TTITLE7=Make Me Belong To You
TTITLE8=One For The Highway
TTITLE9=Lovely Rita
TTITLE10=One More Song For You
EXTD=
EXTT0=
EXTT1=
EXTT2=
EXTT3=
EXTT4=
EXTT5=
EXTT6=
EXTT7=
EXTT8=
EXTT9=
EXTT10=
PLAYORDER=
